<svg xmlns="http://www.w3.org/2000/svg" width="339.307" height="93.155" viewBox="0 0 339.307 93.155"><g transform="translate(64.777 -58.823)"><g transform="translate(56 63.823)"><path d="M47.349,101.989c7.116,1.508,18.735,13.089,27.941,13.089,3.961,0,8.565-1.776,10.974-5.438a.583.583,0,0,1,.375-.205c.107,0,.214.06.214.267a.689.689,0,0,1-.107.413c-2.409,4.428-6.8,8.831-12.2,8.831-9.8,0-19.007-11.02-26.338-13.5a13.313,13.313,0,0,0-4.28-.827,7.591,7.591,0,0,0-7.283,4.4c-.106.267-.164.414-.375.414-.16,0-.266-.209-.266-.414a.991.991,0,0,1,.056-.353,9.584,9.584,0,0,1,6.154-6.617,171.538,171.538,0,0,0,.749-19.292c0-9.449-.155-12.13-.7-15.84-.317-2.355-2.245-5.043-4.547-5.105-.163,0-.265-.146-.265-.352,0-.268.1-.414.954-.414,2.365,0,4.4,1.509,6.323,1.509s3.955-1.509,6.319-1.509c.851,0,.962.146.962.414,0,.206-.11.352-.27.352-2.3.062-4.227,2.75-4.553,5.105-.477,3.785-.643,6.391-.643,15.84C46.54,93.366,46.755,96.4,47.349,101.989Z" transform="translate(-36 -59.561)" fill="#cc5475"/><path d="M57.955,80.219c0-12.3,9.743-19.8,21.84-19.867,12.1,0,20.021,8.3,20.021,20.627,0,11.872-7.662,21.033-20.555,21.033C66.674,102.012,57.955,93.185,57.955,80.219ZM78.939,100.51c9.85,0,15.785-8.776,15.785-19.316,0-10.708-5.721-19.487-15.144-19.487-10.442,0-16.7,8.138-16.7,18.557C62.879,88.689,68.6,100.51,78.939,100.51Z" transform="translate(-31.301 -59.71)" fill="#cc5475"/><path d="M115.352,84.707c0,9.684.215,14.917.7,18.3.319,2.154,2.247,4.617,4.544,4.673a.27.27,0,0,1,.272.307c0,.253-.108.308-.964.308-2.354,0-4.388-1.316-6.315-1.316s-3.961,1.316-6.316,1.316c-.858,0-.964-.056-.964-.308,0-.194.106-.307.261-.307,2.307-.056,4.235-2.519,4.556-4.673.476-3.443.582-9.319.582-18.3,0-9.71-.153-14.944-.688-18.329C110.7,64.222,110,63.3,108.5,63.3c-4.923,0-7.219.056-9.312,2.014a9.465,9.465,0,0,0-3.153,5.456c-.059.338-.165.505-.322.505-.214,0-.319-.168-.319-.505,0-4.14,1.437-6.8,1.437-7.919,0-1.453-.9-2.07-.9-2.406a.282.282,0,0,1,.259-.308,1.056,1.056,0,0,1,.43.141,13.883,13.883,0,0,0,3.487.616c2.14.253,7.22.253,13.379.253s11.243,0,13.386-.253a13.832,13.832,0,0,0,3.471-.616,1.192,1.192,0,0,1,.429-.141.276.276,0,0,1,.263.308c0,.336-.9.953-.9,2.406,0,1.121,1.45,3.779,1.45,7.919,0,.338-.118.505-.331.505-.146,0-.263-.168-.31-.505a9.52,9.52,0,0,0-3.164-5.456c-2.088-2.014-4.066-2.014-9.315-2.014-1.5,0-2.188.921-2.508,3.078C115.461,69.849,115.352,75.7,115.352,84.707Z" transform="translate(-23.287 -59.756)" fill="#cc5475"/><path d="M148.709,99.987c8.661,0,11.87-7.017,11.989-16.393.051-3.3.1-6.3.1-8.872a46.332,46.332,0,0,0-.642-9.374,5.608,5.608,0,0,0-4.712-4.021.25.25,0,0,1-.262-.262c0-.214.119-.261.69-.261,2.475,0,4.068,1.164,6.069,1.164,1.925,0,3.947-1.164,6.3-1.164.856,0,.974.095.974.308a.274.274,0,0,1-.284.287c-2.282.047-4.854,2.14-5.235,3.949a52.015,52.015,0,0,0-.64,9.374c0,2.618,0,5.568-.05,9.039-.163,9.9-3.426,18.155-14.989,18.155-11.038,0-15.272-5.308-15.75-18.463-.092-2.522-.092-5-.092-10.872a64.355,64.355,0,0,0-.289-7.279,5.082,5.082,0,0,0-4.542-3.974.238.238,0,0,1-.262-.262c0-.214.1-.261.954-.261,2.352,0,4.4,1.119,6.326,1.119s3.948-1.119,6.3-1.119c.857,0,.979.047.979.261a.251.251,0,0,1-.263.262,5.14,5.14,0,0,0-4.568,3.974,51.655,51.655,0,0,0-.31,7.279c0,3.212.05,7.066.095,10.919C136.718,94.087,141.266,99.987,148.709,99.987Z" transform="translate(-16.504 -59.613)" fill="#cc5475"/><path d="M168.324,69.625c0-6.425,5.307-9.8,11.9-9.8,3.046,0,5.14.713,6.21.713,1.284,0,1.451-.426,1.881-.426.189,0,.307.095.307.262,0,.307-.686.64-.686,1.925,0,.9,1.235,2.735,1.235,6.422,0,.31-.167.38-.334.38s-.26-.118-.333-.38a11.034,11.034,0,0,0-3.259-5.568,8.672,8.672,0,0,0-5.564-2.093c-4.214,0-7.332,2.949-7.332,7.661,0,3.594,2.617,5.186,6.9,7.662,7.4,4.282,13.971,10.8,13.971,20.055a20.638,20.638,0,0,1-3.907,12.275l3.211,2.571a37.08,37.08,0,0,1,22.819-8.565c7.42,0,16.318,2.188,16.318,10.064,0,6.517-5.783,11.347-14.133,11.347-9.851,0-16.8-4.712-25.218-11.682-4,3.591-6.638,7.828-6.638,11.9,0,.473-.095.687-.427.687-.215,0-.357-.119-.357-.594,0-4.329,2.664-8.781,6.782-12.467l-2.93-2.522c-5.209,6.685-14.369,10.54-23.786,10.54-11.614,0-22.1-8.019-22.1-18.3,0-8.776,7.185-13.226,15.37-13.226,8.014,0,14.606,4.924,21.41,11.349,3.046,2.9,5.091,4.829,6.9,6.422A17.617,17.617,0,0,0,189,97.2c0-8.519-5.639-13.276-12.8-17.51C170.634,76.381,168.324,73.956,168.324,69.625ZM186,107.093l-7.615-6.682c-7.066-6.163-12.778-11.089-20.269-11.089-7.662,0-13.346,5.046-13.346,12.04,0,9.491,10.016,15.749,19.981,15.749C173.515,117.11,181.721,113.422,186,107.093Zm7.113,4.666c7.326,5.875,16.438,10.061,24.362,10.061,6.9,0,12.987-3.686,12.987-9.037,0-7.186-8.872-9.328-15.082-9.328A36.683,36.683,0,0,0,193.117,111.759Z" transform="translate(-13.129 -59.823)" fill="#cc5475"/></g><g transform="translate(73.992 134.574)"><path d="M50.82,124.47v-3.532A2.491,2.491,0,0,1,51.507,119a2.614,2.614,0,0,1,1.813-.616,2.817,2.817,0,0,1,1.854.582,1.872,1.872,0,0,1,.7,1.519.483.483,0,0,1-.123.376.556.556,0,0,1-.369.1c-.321,0-.486-.113-.494-.341a1.379,1.379,0,0,0-1.548-1.348q-1.539,0-1.537,1.666v3.532q0,1.664,1.537,1.667a1.521,1.521,0,0,0,1.142-.416,1.73,1.73,0,0,0,.405-1.25v-1.2H53.5a.291.291,0,0,1-.253-.124.481.481,0,0,1-.089-.287.468.468,0,0,1,.095-.288.3.3,0,0,1,.246-.123h2.041a.306.306,0,0,1,.253.1.391.391,0,0,1,.089.259v1.655a2.468,2.468,0,0,1-.692,1.941,3.056,3.056,0,0,1-3.679,0A2.488,2.488,0,0,1,50.82,124.47Z" transform="translate(-50.82 -118.04)" fill="#003242"/><path d="M55.8,121.273a.4.4,0,0,1,.211-.328.772.772,0,0,1,.424-.14.3.3,0,0,1,.316.2l1.55,4.063,1.395-4.063a.3.3,0,0,1,.3-.2.778.778,0,0,1,.416.14.406.406,0,0,1,.219.339.23.23,0,0,1-.036.118l-1.782,4.777-.223.585c-.039.112-.117.3-.234.563a4.2,4.2,0,0,1-.3.577c-.078.118-.187.271-.327.463a1.672,1.672,0,0,1-.413.416,2.435,2.435,0,0,1-.475.234,1.573,1.573,0,0,1-.58.106.4.4,0,0,1-.456-.45c0-.293.092-.439.282-.439a1.382,1.382,0,0,0,1.026-.591,3.231,3.231,0,0,0,.675-1.51l-1.949-4.73A.237.237,0,0,1,55.8,121.273Z" transform="translate(-49.755 -117.521)" fill="#003242"/><path d="M60.716,126.086v-4.87a.286.286,0,0,1,.135-.245.581.581,0,0,1,.347-.095.512.512,0,0,1,.311.1.3.3,0,0,1,.135.244v.488a1.587,1.587,0,0,1,.6-.642,1.769,1.769,0,0,1,.966-.261,1.917,1.917,0,0,1,1.45.663,2.252,2.252,0,0,1,.617,1.589v3.028a.289.289,0,0,1-.147.257.624.624,0,0,1-.346.095.609.609,0,0,1-.334-.093.291.291,0,0,1-.148-.259v-3.018a1.343,1.343,0,0,0-.4-.949,1.249,1.249,0,0,0-.937-.421,1.235,1.235,0,0,0-.892.38,1.331,1.331,0,0,0-.387.991v3.018a.311.311,0,0,1-.152.242.574.574,0,0,1-.34.11.553.553,0,0,1-.34-.106A.3.3,0,0,1,60.716,126.086Z" transform="translate(-48.702 -117.521)" fill="#003242"/><path d="M65.646,124.256v-1.232a2.09,2.09,0,0,1,.686-1.561,2.3,2.3,0,0,1,1.65-.657,2.274,2.274,0,0,1,1.584.612,2,2,0,0,1,.668,1.536,1.535,1.535,0,0,1-.083.552.549.549,0,0,1-.251.3,1.022,1.022,0,0,1-.318.112,2.4,2.4,0,0,1-.392.024H66.621v.352a1.273,1.273,0,0,0,.463,1.032,1.808,1.808,0,0,0,1.2.387,1.778,1.778,0,0,0,.674-.117,3.175,3.175,0,0,0,.464-.228.579.579,0,0,1,.282-.113.352.352,0,0,1,.282.147.485.485,0,0,1,.118.3c0,.181-.178.363-.534.552a2.82,2.82,0,0,1-1.321.28,2.776,2.776,0,0,1-1.877-.628A2.069,2.069,0,0,1,65.646,124.256Zm.975-.987h2.17a.742.742,0,0,0,.41-.076.347.347,0,0,0,.107-.3,1.289,1.289,0,0,0-.389-.929,1.275,1.275,0,0,0-.951-.4,1.354,1.354,0,0,0-.949.369,1.19,1.19,0,0,0-.4.911Z" transform="translate(-47.646 -117.521)" fill="#003242"/><path d="M70.391,124.256v-1.174a2.3,2.3,0,0,1,.594-1.643,2.266,2.266,0,0,1,1.741-.634,2.652,2.652,0,0,1,1.226.257q.5.259.5.552a.527.527,0,0,1-.123.322.362.362,0,0,1-.288.159,2.007,2.007,0,0,1-.405-.2,1.689,1.689,0,0,0-.839-.2,1.454,1.454,0,0,0-1.068.363,1.385,1.385,0,0,0-.363,1.026v1.165q0,1.389,1.444,1.389a1.724,1.724,0,0,0,.856-.205,1.8,1.8,0,0,1,.424-.205.386.386,0,0,1,.311.151.508.508,0,0,1,.121.318c0,.2-.17.382-.516.563a2.724,2.724,0,0,1-1.266.27,2.118,2.118,0,0,1-2.347-2.275Z" transform="translate(-46.631 -117.521)" fill="#003242"/><path d="M74.6,124.256v-1.2a2.153,2.153,0,0,1,.686-1.578,2.247,2.247,0,0,1,1.627-.674,2.275,2.275,0,0,1,1.63.669,2.134,2.134,0,0,1,.691,1.583v1.2a2.166,2.166,0,0,1-.7,1.582,2.252,2.252,0,0,1-3.244.007A2.169,2.169,0,0,1,74.6,124.256Zm.974,0a1.364,1.364,0,0,0,.4.969,1.265,1.265,0,0,0,1.889-.007,1.375,1.375,0,0,0,.4-.962v-1.189a1.346,1.346,0,0,0-.4-.946,1.271,1.271,0,0,0-.951-.42,1.245,1.245,0,0,0-.945.42,1.338,1.338,0,0,0-.395.946Z" transform="translate(-45.729 -117.521)" fill="#003242"/><path d="M79.716,126.665V118.44a.286.286,0,0,1,.137-.245.573.573,0,0,1,.345-.095.61.61,0,0,1,.352.095.28.28,0,0,1,.14.245v8.225a.312.312,0,0,1-.146.242.564.564,0,0,1-.346.11.547.547,0,0,1-.339-.106A.309.309,0,0,1,79.716,126.665Z" transform="translate(-44.635 -118.1)" fill="#003242"/><path d="M81.814,124.256v-1.2a2.141,2.141,0,0,1,.687-1.578,2.237,2.237,0,0,1,1.624-.674,2.276,2.276,0,0,1,1.632.669,2.133,2.133,0,0,1,.69,1.583v1.2a2.162,2.162,0,0,1-.7,1.582,2.251,2.251,0,0,1-3.243.007A2.169,2.169,0,0,1,81.814,124.256Zm.974,0a1.368,1.368,0,0,0,.4.969,1.265,1.265,0,0,0,1.889-.007,1.375,1.375,0,0,0,.4-.962v-1.189a1.346,1.346,0,0,0-.4-.946,1.271,1.271,0,0,0-.951-.42,1.249,1.249,0,0,0-.945.42,1.342,1.342,0,0,0-.393.946Z" transform="translate(-44.186 -117.521)" fill="#003242"/><path d="M86.483,127.6a1.373,1.373,0,0,1,.948-1.286.8.8,0,0,1-.573-.787.979.979,0,0,1,.563-.87,1.8,1.8,0,0,1-.671-1.477V122.8a1.825,1.825,0,0,1,.577-1.4,2.126,2.126,0,0,1,1.514-.539,2.2,2.2,0,0,1,1.371.435c.234-.493.5-.741.8-.741a.423.423,0,0,1,.306.112.341.341,0,0,1,.118.253c0,.1-.066.181-.2.234a1.074,1.074,0,0,0-.635.528,1.671,1.671,0,0,1,.365,1.116v.387a1.808,1.808,0,0,1-.6,1.395,2.153,2.153,0,0,1-1.524.552,2.082,2.082,0,0,1-.869-.176c-.2.115-.294.245-.294.391a.379.379,0,0,0,.271.339,2.318,2.318,0,0,0,.668.17l.869.112a4.549,4.549,0,0,1,.869.192,1.4,1.4,0,0,1,.668.465,1.322,1.322,0,0,1,.271.85,1.424,1.424,0,0,1-.665,1.267,3.049,3.049,0,0,1-1.719.437,3.258,3.258,0,0,1-1.742-.425A1.3,1.3,0,0,1,86.483,127.6Zm.925-.109a.851.851,0,0,0,.407.737,1.87,1.87,0,0,0,1.084.279,1.777,1.777,0,0,0,1.049-.279.86.86,0,0,0,.393-.739.8.8,0,0,0-.064-.331.562.562,0,0,0-.205-.237,1.933,1.933,0,0,0-.28-.159,1.33,1.33,0,0,0-.368-.1c-.153-.019-.273-.036-.368-.047s-.221-.029-.385-.051l-.335-.044Q87.409,126.833,87.408,127.495Zm.293-4.323a1.367,1.367,0,0,0,.313.926,1.162,1.162,0,0,0,1.683,0,1.326,1.326,0,0,0,.317-.919V122.8a1.322,1.322,0,0,0-.317-.9,1.069,1.069,0,0,0-.846-.363,1.051,1.051,0,0,0-.844.357,1.348,1.348,0,0,0-.306.911Z" transform="translate(-43.186 -117.575)" fill="#003242"/><path d="M91.043,121.273a.4.4,0,0,1,.211-.328.778.778,0,0,1,.424-.14.3.3,0,0,1,.316.2l1.549,4.063,1.4-4.063a.3.3,0,0,1,.3-.2.778.778,0,0,1,.418.14.4.4,0,0,1,.219.339.23.23,0,0,1-.036.118l-1.781,4.777-.225.585c-.039.112-.118.3-.234.563a4.089,4.089,0,0,1-.294.577c-.078.118-.188.271-.329.463a1.626,1.626,0,0,1-.409.416,2.556,2.556,0,0,1-.476.234,1.576,1.576,0,0,1-.579.106.4.4,0,0,1-.46-.45c0-.293.095-.439.284-.439a1.382,1.382,0,0,0,1.026-.591,3.242,3.242,0,0,0,.674-1.51l-1.947-4.73A.231.231,0,0,1,91.043,121.273Z" transform="translate(-42.21 -117.521)" fill="#003242"/><path d="M95.5,125.108a.625.625,0,0,1,.172-.439.559.559,0,0,1,.426-.18.609.609,0,0,1,.612.619,7,7,0,0,1-.5,1.422.261.261,0,0,1-.261.163.4.4,0,0,1-.234-.074.251.251,0,0,1-.1-.208.278.278,0,0,1,.023-.129l.248-.611A.558.558,0,0,1,95.5,125.108Z" transform="translate(-41.257 -116.732)" fill="#003242"/><path d="M99.952,126.605V118.72a.28.28,0,0,1,.147-.251.722.722,0,0,1,.693,0,.277.277,0,0,1,.147.251V122.1h3.178V118.72a.278.278,0,0,1,.146-.251.724.724,0,0,1,.694,0,.278.278,0,0,1,.146.251v7.885a.29.29,0,0,1-.146.257.684.684,0,0,1-.694,0,.29.29,0,0,1-.146-.257v-3.685h-3.178v3.685a.289.289,0,0,1-.147.257.682.682,0,0,1-.693,0A.292.292,0,0,1,99.952,126.605Z" transform="translate(-40.303 -118.04)" fill="#003242"/><path d="M105.47,124.256v-1.232a2.094,2.094,0,0,1,.686-1.561,2.309,2.309,0,0,1,1.651-.657,2.269,2.269,0,0,1,1.583.612,2,2,0,0,1,.667,1.536,1.512,1.512,0,0,1-.081.552.552.552,0,0,1-.25.3,1.028,1.028,0,0,1-.319.112,2.4,2.4,0,0,1-.391.024h-2.569v.352a1.273,1.273,0,0,0,.463,1.032,1.812,1.812,0,0,0,1.2.387,1.77,1.77,0,0,0,.674-.117,3.2,3.2,0,0,0,.465-.228.585.585,0,0,1,.28-.113.353.353,0,0,1,.283.147.478.478,0,0,1,.118.3c0,.181-.18.363-.534.552a2.829,2.829,0,0,1-1.322.28,2.775,2.775,0,0,1-1.876-.628A2.074,2.074,0,0,1,105.47,124.256Zm.976-.987h2.168a.737.737,0,0,0,.41-.076.344.344,0,0,0,.108-.3,1.3,1.3,0,0,0-.387-.929,1.279,1.279,0,0,0-.952-.4,1.357,1.357,0,0,0-.951.369,1.189,1.189,0,0,0-.4.911Z" transform="translate(-39.122 -117.521)" fill="#003242"/><path d="M110.08,124.984a1.318,1.318,0,0,1,.7-1.283,4.593,4.593,0,0,1,2.042-.361h.563v-.248a1.681,1.681,0,0,0-.323-1.027,1.124,1.124,0,0,0-.966-.438,2.021,2.021,0,0,0-.869.176,3.17,3.17,0,0,1-.41.176.3.3,0,0,1-.265-.158.641.641,0,0,1-.1-.334c0-.181.18-.339.534-.476a3.141,3.141,0,0,1,1.134-.205,2.083,2.083,0,0,1,1.7.652,2.435,2.435,0,0,1,.544,1.624v3a.3.3,0,0,1-.134.253.566.566,0,0,1-.345.1.513.513,0,0,1-.319-.1.293.293,0,0,1-.127-.244v-.458a2.349,2.349,0,0,1-1.771.894,1.646,1.646,0,0,1-1.146-.395A1.475,1.475,0,0,1,110.08,124.984Zm.987-.106a.858.858,0,0,0,.244.664.935.935,0,0,0,.658.227,1.46,1.46,0,0,0,.957-.4,1.1,1.1,0,0,0,.463-.813v-.619h-.41c-.228,0-.424.007-.586.018a4,4,0,0,0-.511.072,1.367,1.367,0,0,0-.433.154.788.788,0,0,0-.277.274A.805.805,0,0,0,111.067,124.878Z" transform="translate(-38.135 -117.521)" fill="#003242"/><path d="M115.039,126.665V118.44a.286.286,0,0,1,.137-.245.573.573,0,0,1,.345-.095.613.613,0,0,1,.352.095.28.28,0,0,1,.14.245v8.225a.311.311,0,0,1-.147.242.558.558,0,0,1-.345.11.547.547,0,0,1-.339-.106A.306.306,0,0,1,115.039,126.665Z" transform="translate(-37.074 -118.1)" fill="#003242"/><path d="M117.292,125.111v-6.044a.28.28,0,0,1,.149-.239.6.6,0,0,1,.329-.1.606.606,0,0,1,.342.1.285.285,0,0,1,.153.239v2.253h1.479a.253.253,0,0,1,.211.117.478.478,0,0,1,.081.271.452.452,0,0,1-.081.263.253.253,0,0,1-.211.11h-1.479v3a.94.94,0,0,0,.215.7,1.1,1.1,0,0,0,.759.2h.362a.4.4,0,0,1,.312.129.452.452,0,0,1,.11.311.465.465,0,0,1-.117.317.38.38,0,0,1-.306.136h-.362Q117.291,126.883,117.292,125.111Z" transform="translate(-36.592 -117.966)" fill="#003242"/><path d="M120.556,126.663V118.45a.286.286,0,0,1,.137-.246.582.582,0,0,1,.345-.095.622.622,0,0,1,.352.095.287.287,0,0,1,.143.246v3.836a1.733,1.733,0,0,1,.589-.642,1.646,1.646,0,0,1,.935-.261,1.913,1.913,0,0,1,1.448.663,2.251,2.251,0,0,1,.616,1.589v3.028a.291.291,0,0,1-.146.257.624.624,0,0,1-.346.095.613.613,0,0,1-.335-.093.3.3,0,0,1-.147-.259v-3.018a1.356,1.356,0,0,0-.4-.949,1.257,1.257,0,0,0-.941-.421,1.243,1.243,0,0,0-.892.38,1.328,1.328,0,0,0-.384.991v3.018a.316.316,0,0,1-.151.242.595.595,0,0,1-.683,0A.3.3,0,0,1,120.556,126.663Z" transform="translate(-35.893 -118.098)" fill="#003242"/><path d="M127.554,124.58a2.316,2.316,0,0,1,.442-1.412,3.017,3.017,0,0,1,1.1-.931,5.472,5.472,0,0,1-.675-.96,2.2,2.2,0,0,1-.24-1.031,1.866,1.866,0,0,1,.635-1.491,2.33,2.33,0,0,1,1.582-.549,2.363,2.363,0,0,1,1.456.42c.378.282.563.544.563.788a.46.46,0,0,1-.455.458.383.383,0,0,1-.254-.136c-.089-.089-.176-.186-.265-.287a1.229,1.229,0,0,0-.4-.288,1.381,1.381,0,0,0-.622-.134,1.19,1.19,0,0,0-1.267,1.276,1.661,1.661,0,0,0,.2.756,3.186,3.186,0,0,0,.378.6c.118.141.3.347.55.62l2.251,2.435a5.048,5.048,0,0,0,.364-1.979.379.379,0,0,1,.1-.27.49.49,0,0,1,.323-.081.39.39,0,0,1,.325.118.6.6,0,0,1,.091.374,5.121,5.121,0,0,1-.6,2.472l1.043,1.118a.3.3,0,0,1,.084.2.379.379,0,0,1-.146.285.47.47,0,0,1-.313.131.371.371,0,0,1-.257-.13l-.889-.949a2.9,2.9,0,0,1-2.367,1.1,2.73,2.73,0,0,1-2-.736A2.412,2.412,0,0,1,127.554,124.58Zm.986-.081a1.644,1.644,0,0,0,.505,1.224,1.887,1.887,0,0,0,1.388.5,1.832,1.832,0,0,0,1.634-.832l-2.412-2.553a3.357,3.357,0,0,0-.522.37,2.073,2.073,0,0,0-.4.526A1.537,1.537,0,0,0,128.54,124.5Z" transform="translate(-34.395 -118.077)" fill="#003242"/><path d="M135.817,118.779a.337.337,0,0,1,.192-.282.776.776,0,0,1,.408-.118.33.33,0,0,1,.361.223l1.984,6.97,1.117-4.3c.055-.2.225-.3.514-.3s.437.1.492.307l1.127,4.293,1.97-6.972c.049-.147.172-.221.378-.221a.731.731,0,0,1,.4.118.33.33,0,0,1,.188.282.456.456,0,0,1-.008.106l-2.319,7.8c-.069.228-.273.34-.612.34q-.534,0-.616-.336l-1-3.876-1.02,3.873c-.062.228-.26.34-.6.34s-.538-.112-.609-.34l-2.321-7.8A.331.331,0,0,1,135.817,118.779Z" transform="translate(-32.626 -118.04)" fill="#003242"/><path d="M143.673,124.256v-1.232a2.091,2.091,0,0,1,.687-1.561,2.3,2.3,0,0,1,1.65-.657,2.267,2.267,0,0,1,1.583.612,2,2,0,0,1,.668,1.536,1.538,1.538,0,0,1-.081.552.559.559,0,0,1-.251.3,1.028,1.028,0,0,1-.319.112,2.382,2.382,0,0,1-.39.024h-2.57v.352a1.273,1.273,0,0,0,.463,1.032,1.811,1.811,0,0,0,1.2.387,1.765,1.765,0,0,0,.674-.117,3.284,3.284,0,0,0,.466-.228.577.577,0,0,1,.279-.113.357.357,0,0,1,.284.147.483.483,0,0,1,.117.3c0,.181-.178.363-.534.552a2.829,2.829,0,0,1-1.322.28,2.77,2.77,0,0,1-1.874-.628A2.071,2.071,0,0,1,143.673,124.256Zm.976-.987h2.17a.74.74,0,0,0,.41-.076.343.343,0,0,0,.107-.3,1.3,1.3,0,0,0-.387-.929,1.279,1.279,0,0,0-.951-.4,1.357,1.357,0,0,0-.951.369,1.19,1.19,0,0,0-.4.911Z" transform="translate(-30.945 -117.521)" fill="#003242"/><path d="M148.67,126.665V118.44a.284.284,0,0,1,.136-.245.576.576,0,0,1,.345-.095.61.61,0,0,1,.352.095.28.28,0,0,1,.14.245v8.225a.312.312,0,0,1-.146.242.564.564,0,0,1-.346.11.549.549,0,0,1-.339-.106A.308.308,0,0,1,148.67,126.665Z" transform="translate(-29.875 -118.1)" fill="#003242"/><path d="M151.027,126.665V118.44a.286.286,0,0,1,.137-.245.573.573,0,0,1,.345-.095.613.613,0,0,1,.352.095.283.283,0,0,1,.14.245v8.225a.311.311,0,0,1-.147.242.558.558,0,0,1-.345.11.547.547,0,0,1-.339-.106A.306.306,0,0,1,151.027,126.665Z" transform="translate(-29.371 -118.1)" fill="#003242"/><path d="M153.3,126.086v-4.87a.287.287,0,0,1,.134-.245.585.585,0,0,1,.348-.095.511.511,0,0,1,.31.1.3.3,0,0,1,.136.244v.488a1.6,1.6,0,0,1,.6-.642,1.774,1.774,0,0,1,.968-.261,1.913,1.913,0,0,1,1.448.663,2.254,2.254,0,0,1,.619,1.589v3.028a.289.289,0,0,1-.147.257.638.638,0,0,1-.348.095.6.6,0,0,1-.331-.093.291.291,0,0,1-.151-.259v-3.018a1.341,1.341,0,0,0-.4-.949,1.255,1.255,0,0,0-.937-.421,1.231,1.231,0,0,0-.892.38,1.331,1.331,0,0,0-.387.991v3.018a.313.313,0,0,1-.153.242.591.591,0,0,1-.681,0A.3.3,0,0,1,153.3,126.086Z" transform="translate(-28.884 -117.521)" fill="#003242"/><path d="M158.226,124.256v-1.232a2.091,2.091,0,0,1,.687-1.561,2.3,2.3,0,0,1,1.65-.657,2.269,2.269,0,0,1,1.583.612,2,2,0,0,1,.668,1.536,1.538,1.538,0,0,1-.081.552.559.559,0,0,1-.251.3,1.028,1.028,0,0,1-.319.112,2.4,2.4,0,0,1-.391.024H159.2v.352a1.273,1.273,0,0,0,.463,1.032,1.812,1.812,0,0,0,1.2.387,1.77,1.77,0,0,0,.674-.117,3.282,3.282,0,0,0,.466-.228.577.577,0,0,1,.279-.113.357.357,0,0,1,.284.147.483.483,0,0,1,.117.3c0,.181-.178.363-.534.552a2.829,2.829,0,0,1-1.322.28,2.775,2.775,0,0,1-1.876-.628A2.074,2.074,0,0,1,158.226,124.256Zm.976-.987h2.17a.735.735,0,0,0,.409-.076.344.344,0,0,0,.108-.3,1.3,1.3,0,0,0-.387-.929,1.279,1.279,0,0,0-.951-.4,1.355,1.355,0,0,0-.951.369,1.19,1.19,0,0,0-.4.911Z" transform="translate(-27.83 -117.521)" fill="#003242"/><path d="M162.858,125.64a.53.53,0,0,1,.1-.3.292.292,0,0,1,.242-.147.5.5,0,0,1,.27.147,2.149,2.149,0,0,0,.505.288,1.943,1.943,0,0,0,.775.141,1.346,1.346,0,0,0,.85-.214.659.659,0,0,0,.263-.534.748.748,0,0,0-.293-.622,2.018,2.018,0,0,0-.716-.352c-.28-.078-.563-.164-.844-.261a1.609,1.609,0,0,1-.716-.473,1.279,1.279,0,0,1-.293-.879,1.587,1.587,0,0,1,.475-1.146,1.961,1.961,0,0,1,1.45-.482,3.332,3.332,0,0,1,1.14.187c.341.126.515.267.515.427a.6.6,0,0,1-.112.317.323.323,0,0,1-.277.176,3.144,3.144,0,0,1-.453-.172,2.009,2.009,0,0,0-.8-.172,1.112,1.112,0,0,0-.8.255.781.781,0,0,0-.263.575.593.593,0,0,0,.293.522,2.357,2.357,0,0,0,.72.3,8.844,8.844,0,0,1,.853.262,1.587,1.587,0,0,1,.713.528,1.519,1.519,0,0,1,.3.966,1.39,1.39,0,0,1-.517,1.14,2.238,2.238,0,0,1-1.442.418,2.951,2.951,0,0,1-1.361-.288C163.046,126.052,162.858,125.852,162.858,125.64Z" transform="translate(-26.838 -117.521)" fill="#003242"/><path d="M166.886,125.64a.545.545,0,0,1,.1-.3.286.286,0,0,1,.242-.147.506.506,0,0,1,.27.147,2.1,2.1,0,0,0,.505.288,1.931,1.931,0,0,0,.772.141,1.349,1.349,0,0,0,.852-.214.66.66,0,0,0,.265-.534.748.748,0,0,0-.294-.622,2.038,2.038,0,0,0-.716-.352c-.283-.078-.563-.164-.846-.261a1.615,1.615,0,0,1-.714-.473,1.285,1.285,0,0,1-.293-.879,1.573,1.573,0,0,1,.476-1.146,1.952,1.952,0,0,1,1.448-.482,3.306,3.306,0,0,1,1.136.187c.346.126.518.267.518.427a.606.606,0,0,1-.114.317.319.319,0,0,1-.273.176,2.921,2.921,0,0,1-.453-.172,2.036,2.036,0,0,0-.8-.172,1.115,1.115,0,0,0-.8.255.783.783,0,0,0-.265.575.594.594,0,0,0,.294.522,2.334,2.334,0,0,0,.722.3,8.476,8.476,0,0,1,.85.262,1.577,1.577,0,0,1,.716.528,1.518,1.518,0,0,1,.294.966,1.4,1.4,0,0,1-.515,1.14,2.246,2.246,0,0,1-1.446.418,2.972,2.972,0,0,1-1.361-.288C167.075,126.052,166.886,125.852,166.886,125.64Z" transform="translate(-25.976 -117.521)" fill="#003242"/></g><g transform="translate(-157.857 42.48)"><path d="M143.07,44.391c-2.09-3.362-4.634-2.182-4.634-2.182a1.98,1.98,0,0,0-.729.443.187.187,0,0,1-.084-.162,3.553,3.553,0,0,0,1.361-.8c1.2-1.118,1.361-2.846.9-5.287a8.944,8.944,0,0,1,0-3.91s-1.183.554-4.72-.381c-3.789-1.059-4.861,1.553-4.861,1.553a2.9,2.9,0,0,0-.273,1.08,1.013,1.013,0,0,0-.235-.138,4.074,4.074,0,0,0,.467-1.866c0-1.693-1.115-2.965-3.184-4.269a8.644,8.644,0,0,1-2.814-2.69s-.383,1.261-3.462,3.178c-3.27,2.071-2.128,4.628-2.128,4.628a2.6,2.6,0,0,0,.435.751.577.577,0,0,1-.208.073,3.919,3.919,0,0,0-.853-1.485c-1.131-1.2-2.811-1.339-5.241-.88a8.977,8.977,0,0,1-3.875.073s.548,1.169-.448,4.672c-1.053,3.753,1.515,4.79,1.515,4.79a2,2,0,0,0,.856.246c-.027.076-.065.116-.1.194a3.67,3.67,0,0,0-1.523-.332c-1.666,0-2.93,1.164-4.269,3.3a8.847,8.847,0,0,1-2.66,2.862s1.25.424,3.181,3.556c2.044,3.343,4.618,2.166,4.618,2.166a1.124,1.124,0,0,0,.321-.151c.011.043.022.057.04.124a3.63,3.63,0,0,0-1.037.67c-1.223,1.156-1.361,2.881-.913,5.344a9.561,9.561,0,0,1,.016,3.967s1.183-.6,4.736.386c3.77,1.042,4.863-1.574,4.863-1.574a2.071,2.071,0,0,0,.23-.7.867.867,0,0,1,.154.04,4.13,4.13,0,0,0-.346,1.6c0,1.7,1.123,2.981,3.192,4.321a8.511,8.511,0,0,1,2.816,2.676s.427-1.269,3.51-3.195c3.281-2.079,2.117-4.68,2.117-4.68a2.171,2.171,0,0,0-.362-.653,1.628,1.628,0,0,0,.178-.041,3.532,3.532,0,0,0,.818,1.391c1.1,1.194,2.814,1.337,5.266.843a8.911,8.911,0,0,1,3.9-.027s-.554-1.183.446-4.731c1.015-3.794-1.531-4.815-1.531-4.815a2.461,2.461,0,0,0-1.08-.273c.081-.089.089-.173.167-.265a3.6,3.6,0,0,0,1.647.381c1.717,0,2.989-1.172,4.318-3.289A8.675,8.675,0,0,1,146.248,48S144.974,47.575,143.07,44.391Zm-9.44,7.051c-.583,0-1.185-.059-1.739-.095.011.024.065.035.1.108h0a13.262,13.262,0,0,1,1.191,1.091c2.795,2.744,4.191,6.062,3.832,8.306-2.241.359-5.56-1.042-8.293-3.834a11.131,11.131,0,0,1-1.175-1.285v.162c0-.035,0-.057-.022-.062.022.535.076,1.08.076,1.642,0,3.918-1.329,7.261-3.157,8.611-1.888-1.35-3.173-4.693-3.173-8.611a12.569,12.569,0,0,1,.084-1.663.085.085,0,0,0-.076.084v-.14a12.946,12.946,0,0,1-1.14,1.264c-2.765,2.792-6.057,4.194-8.32,3.834-.362-2.244,1.08-5.563,3.834-8.306a11.97,11.97,0,0,1,1.231-1.091h-.057a.235.235,0,0,1,.1-.1c-.554.027-1.126.086-1.731.086-3.918,0-7.248-1.334-8.6-3.17,1.347-1.882,4.677-3.176,8.6-3.176a12.143,12.143,0,0,1,1.642.092l-.011-.019c.057,0,.095.011.162.011-.451-.359-.9-.788-1.337-1.2-2.754-2.781-4.2-6.062-3.834-8.32,2.263-.365,5.555,1.075,8.32,3.826.413.432.78.818,1.14,1.261v-.011a.432.432,0,0,1,.084.076,13.035,13.035,0,0,1-.092-1.79c0-3.907,1.285-7.256,3.173-8.592,1.828,1.337,3.157,4.685,3.157,8.592,0,.624-.054,1.177-.086,1.736l.032-.019v.019c.362-.413.729-.84,1.175-1.272,2.733-2.752,6.051-4.191,8.293-3.826.359,2.257-1.037,5.538-3.832,8.32-.435.41-.856.84-1.3,1.2.019,0,.068-.008.108-.011v.019a12.318,12.318,0,0,1,1.642-.092c3.907,0,7.264,1.293,8.625,3.176C140.893,50.108,137.537,51.442,133.63,51.442Z" transform="translate(15.696 16.043)" fill="#cc5475"/><path d="M119.071,39.974c.275.011.551.019.87.019a11.192,11.192,0,0,0,3.94-.713,11.074,11.074,0,0,0-3.94-.724,5.076,5.076,0,0,0-.878.059,5.693,5.693,0,0,0,.824-.329,11.638,11.638,0,0,0,3.357-2.117h-.162a.132.132,0,0,0,.054-.008,9.97,9.97,0,0,0-3.794.834,4.7,4.7,0,0,0-.8.354,3.12,3.12,0,0,0,.624-.6,9.78,9.78,0,0,0,2.274-3.286,11.787,11.787,0,0,0-3.276,2.271c-.186.232-.37.432-.551.635.1-.251.235-.486.359-.751a10.869,10.869,0,0,0,.824-3.88c0,.046-.011.068-.049.078l.016-.078a10.327,10.327,0,0,0-2.144,3.338c-.1.265-.186.518-.278.772.008-.289.014-.57.014-.851a10.84,10.84,0,0,0-.7-3.918A11.017,11.017,0,0,0,114.966,35c0,.281.013.567.013.864-.092-.259-.181-.521-.284-.786a10.793,10.793,0,0,0-2.085-3.284v.024a.358.358,0,0,1-.084-.089,10.482,10.482,0,0,0,.826,3.891c.119.265.257.5.359.751-.181-.2-.367-.4-.556-.635a11.743,11.743,0,0,0-3.284-2.271,10.08,10.08,0,0,0,2.279,3.286,3.691,3.691,0,0,0,.618.6,4.689,4.689,0,0,0-.788-.354,10.174,10.174,0,0,0-3.743-.834l.016.008h-.167a11.484,11.484,0,0,0,3.348,2.117,5.966,5.966,0,0,0,.813.329,4.981,4.981,0,0,0-.87-.059,10.91,10.91,0,0,0-3.926.724,11.026,11.026,0,0,0,3.926.713c.308,0,.594-.008.87-.019-.267.092-.54.192-.813.286a11.44,11.44,0,0,0-3.259,2.077.76.76,0,0,0,.078-.016c-.049.032-.089.043-.121.116a12.083,12.083,0,0,0,3.848-.875,6.906,6.906,0,0,0,.788-.348,8.137,8.137,0,0,0-.618.586,10.146,10.146,0,0,0-2.279,3.281,11.213,11.213,0,0,0,3.284-2.274c.189-.192.375-.435.556-.635-.1.265-.24.537-.359.8a10.728,10.728,0,0,0-.826,3.767c.008-.022.054-.032.084-.078a.87.87,0,0,1-.008.135,11.191,11.191,0,0,0,2.093-3.276c.1-.267.192-.537.284-.807,0,.27-.013.554-.013.837a10.906,10.906,0,0,0,.691,3.924,10.732,10.732,0,0,0,.7-3.924c0-.284-.005-.559-.014-.837.092.27.181.54.278.807a10.783,10.783,0,0,0,2.155,3.3,1.007,1.007,0,0,0-.027-.157c.032.043.049.046.049.057a11.291,11.291,0,0,0-.824-3.745c-.124-.259-.262-.532-.359-.8.181.211.365.443.551.635a11.252,11.252,0,0,0,3.276,2.274,9.842,9.842,0,0,0-2.274-3.281,5.739,5.739,0,0,0-.624-.586,6.868,6.868,0,0,0,.8.348,11.6,11.6,0,0,0,3.9.875.418.418,0,0,0-.159-.116.2.2,0,0,0,.065.008,11.561,11.561,0,0,0-3.259-2.068C119.611,40.166,119.341,40.066,119.071,39.974Zm-2.452-.343a1.8,1.8,0,0,0-.489.068,1.4,1.4,0,0,0-.065.486c-.116-.1-.265-.2-.373-.294-.162.092-.267.192-.435.294,0-.178-.008-.34-.011-.486a2.444,2.444,0,0,0-.54-.068c.113-.105.251-.262.356-.378-.105-.159-.243-.27-.356-.427.181,0,.362-.011.54-.024,0-.17.011-.351.011-.521.167.119.273.246.435.34.108-.095.257-.221.373-.34a1.725,1.725,0,0,0,.065.521c.143.013.308.024.489.024-.1.157-.2.267-.3.427C116.422,39.369,116.522,39.526,116.619,39.631Z" transform="translate(24.441 25.062)" fill="#00a39d"/><path d="M184.189,69.932c-3.06-4.113-5.536-6.6-9.9-7.137a3.429,3.429,0,0,0-.03-.424c4.423-.6,7.024-3.046,10.107-7.021,4.736-5.992-2-17.171-2.484-26.623-.313-5.741,3.608-11.182,3.608-11.182l-1.123,1.1c-1.091,1.1-5.987,3.624-13.834,2.673-7.869-.942-8.22-6.135-19.4-4.734-9.176,1.161-11.99,10.958-12.713,14.412-.737-3.729-3.5-13.086-11.968-14.25-10.593-1.439-10.885,3.818-18.349,4.79-7.464.934-12.092-1.607-13.132-2.711L93.931,17.71S97.638,23.2,97.363,29c-.448,9.548-6.864,20.871-2.387,26.909,3.132,4.237,5.687,6.772,10.348,7.161,0,.073-.005.146-.005.178,0,.07.005.1.005.17-4.709.5-7.348,2.987-10.575,7.072-4.731,5.989,2.052,17.177,2.525,26.62.286,5.741-3.629,11.188-3.629,11.188l1.1-1.107c1.1-1.091,5.989-3.618,13.872-2.671s8.193,6.138,19.383,4.736c9.2-1.164,12-10.961,12.692-14.409.81,3.721,3.537,13.091,11.987,14.25,10.62,1.431,10.9-3.821,18.343-4.79,7.45-.94,12.073,1.6,13.164,2.708l1,1.113s-3.675-5.484-3.4-11.3C182.224,87.29,188.64,75.967,184.189,69.932Zm-18.2-3.127a3.67,3.67,0,0,1-2.409,1.963,5.92,5.92,0,0,1-.88.005.255.255,0,0,0-.03.116,3.346,3.346,0,0,1,2.087,2.252c.64,2.376,1.088,3.9,1.088,3.9a18.222,18.222,0,0,0-2.873,1.639,3.284,3.284,0,0,1-3.753.543,3.206,3.206,0,0,1,1,2.83c-.362,2.46-.551,4.01-.551,4.01a20.392,20.392,0,0,0-3.267.359,3.536,3.536,0,0,1-3.057-.383,3.667,3.667,0,0,1-.675-.726c-.041.008-.073.016-.076.024a3.538,3.538,0,0,1-.016,3.24c-1.264,2.122-2.074,3.489-2.074,3.489a16.231,16.231,0,0,0-3.181-.894,3.545,3.545,0,0,1-2.636-1.5,5.224,5.224,0,0,1-.275-.616,3.282,3.282,0,0,1-1.272,2.719c-1.99,1.52-3.186,2.5-3.186,2.5a16.885,16.885,0,0,0-2.622-2.047,3.5,3.5,0,0,1-1.912-2.387,5.389,5.389,0,0,1,0-.934,3.258,3.258,0,0,1-2.2,1.952l-3.948,1.029a16.888,16.888,0,0,0-1.626-2.876,3.577,3.577,0,0,1-.826-2.968,3.672,3.672,0,0,1,.4-.913c-.019-.008-.035-.011-.043-.03a3.4,3.4,0,0,1-2.943,1.256c-2.46-.248-4.032-.405-4.032-.405a17.842,17.842,0,0,0-.481-3.27A3.572,3.572,0,0,1,120,77.609a5.473,5.473,0,0,1,.572-.629,3.3,3.3,0,0,1-3.03-.1c-2.171-1.258-3.562-2.017-3.562-2.017a17.594,17.594,0,0,0,.845-3.254,3.547,3.547,0,0,1,1.458-2.7,4.529,4.529,0,0,1,.913-.4,3.325,3.325,0,0,1-2.884-1.272c-1.512-2-2.49-3.254-2.49-3.254a17.576,17.576,0,0,0,2.025-2.638,3.523,3.523,0,0,1,2.4-1.928,2.935,2.935,0,0,1,1.137.011c.008-.011.008-.073.014-.081a3.386,3.386,0,0,1-2.336-2.3c-.643-2.425-1.083-3.915-1.083-3.915a17.814,17.814,0,0,0,2.881-1.634,3.559,3.559,0,0,1,2.943-.87,3.259,3.259,0,0,1,.794.338,3.4,3.4,0,0,1-1-2.879c.359-2.46.562-4,.562-4a16.7,16.7,0,0,0,3.289-.362,3.567,3.567,0,0,1,3.038.408,3.452,3.452,0,0,1,.616.6l.076-.027a3.373,3.373,0,0,1,.1-3.095c1.266-2.158,2.05-3.519,2.05-3.519a17.382,17.382,0,0,0,3.184.9,3.457,3.457,0,0,1,2.646,1.526,3.883,3.883,0,0,1,.275.572,3.384,3.384,0,0,1,1.266-2.719c1.993-1.485,3.189-2.468,3.189-2.468a17.168,17.168,0,0,0,2.625,2.028,3.543,3.543,0,0,1,1.9,2.419,6.332,6.332,0,0,1,0,.818h.057a3.379,3.379,0,0,1,2.131-1.877c2.441-.6,3.98-1.023,3.98-1.023a18.111,18.111,0,0,0,1.612,2.9,3.562,3.562,0,0,1,.84,2.954c-.078.143-.105.316-.178.483a1.745,1.745,0,0,1,.186.1,3.2,3.2,0,0,1,2.541-.9c2.476.267,4.064.413,4.064.413a19.243,19.243,0,0,0,.478,3.27,3.642,3.642,0,0,1-.273,3.043,3.336,3.336,0,0,1-.489.54c.027.011.032.027.038.062a3.2,3.2,0,0,1,2.9.13c2.179,1.261,3.537,2.058,3.537,2.058a15.992,15.992,0,0,0-.813,3.208,3.736,3.736,0,0,1-1.453,2.714,3.154,3.154,0,0,1-.732.351l0,.046a3.3,3.3,0,0,1,2.671,1.266c1.509,2,2.509,3.249,2.509,3.249A19.26,19.26,0,0,0,165.986,66.8Z" transform="translate(0 0)" fill="#75c7c2"/></g></g></svg>