<svg xmlns="http://www.w3.org/2000/svg" width="209.714" height="33.837" viewBox="0 0 209.714 33.837"><g transform="translate(-565 -3299.945)"><path d="M-85.774-107.181h13.6l4.238-12.9,4.174,12.9h13.6l-11,7.969L-57-86.247l-10.942-7.969-11,7.969,4.174-12.966Z" transform="translate(650.773 3420.029)" fill="#fff"/><path d="M-85.774-107.181h13.6l4.238-12.9,4.174,12.9h13.6l-11,7.969L-57-86.247l-10.942-7.969-11,7.969,4.174-12.966Z" transform="translate(694.301 3420.029)" fill="#fff"/><path d="M-85.774-107.181h13.6l4.238-12.9,4.174,12.9h13.6l-11,7.969L-57-86.247l-10.942-7.969-11,7.969,4.174-12.966Z" transform="translate(737.827 3420.029)" fill="#fff"/><path d="M-85.774-107.181h13.6l4.238-12.9,4.174,12.9h13.6l-11,7.969L-57-86.247l-10.942-7.969-11,7.969,4.174-12.966Z" transform="translate(781.354 3420.029)" fill="#fff"/><path d="M-85.774-107.181h13.6l4.238-12.9,4.174,12.9h13.6l-11,7.969L-57-86.247l-10.942-7.969-11,7.969,4.174-12.966Z" transform="translate(824.88 3420.029)" fill="#fff"/></g></svg>